<svg width="600" height="400" viewBox="0 0 600 400" xmlns="http://www.w3.org/2000/svg">
  <defs>
    <linearGradient id="pageBg" x1="0" y1="0" x2="1" y2="1">
      <stop offset="0%" stop-color="#f0f7ff"/>
      <stop offset="50%" stop-color="#ffffff"/>
      <stop offset="100%" stop-color="#edfbf5"/>
    </linearGradient>
    <linearGradient id="blueG" x1="0" y1="0" x2="1" y2="1">
      <stop offset="0%" stop-color="#0a3572"/>
      <stop offset="100%" stop-color="#1565c0"/>
    </linearGradient>
    <linearGradient id="tealG" x1="0" y1="0" x2="1" y2="1">
      <stop offset="0%" stop-color="#00695c"/>
      <stop offset="100%" stop-color="#1de9b6"/>
    </linearGradient>
    <linearGradient id="greenG" x1="0" y1="0" x2="1" y2="1">
      <stop offset="0%" stop-color="#2e7d32"/>
      <stop offset="100%" stop-color="#66bb6a"/>
    </linearGradient>
    <linearGradient id="accentBar" x1="0" y1="0" x2="1" y2="0">
      <stop offset="0%" stop-color="#0a3572"/>
      <stop offset="45%" stop-color="#0097a7"/>
      <stop offset="100%" stop-color="#1de9b6"/>
    </linearGradient>
    <filter id="softSh">
      <feDropShadow dx="0" dy="4" stdDeviation="12" flood-color="#0a3572" flood-opacity="0.11"/>
    </filter>
    <filter id="cardSh">
      <feDropShadow dx="0" dy="2" stdDeviation="7" flood-color="#0a3572" flood-opacity="0.09"/>
    </filter>
    <filter id="glowB">
      <feDropShadow dx="0" dy="0" stdDeviation="7" flood-color="#1565c0" flood-opacity="0.22"/>
    </filter>
    <marker id="arr" viewBox="0 0 10 10" refX="8" refY="5" markerWidth="5" markerHeight="5" orient="auto">
      <path d="M2 1L8 5L2 9" fill="none" stroke="#9fe1cb" stroke-width="1.5" stroke-linecap="round"/>
    </marker>
  </defs>

  <rect width="600" height="400" fill="url(#pageBg)" rx="14"/>

  <!-- Circuit lines background -->
  <g stroke="#1565c0" stroke-width="0.55" fill="none" opacity="0.07">
    <path d="M0 38 H52 V12 H122 V38 H188"/>
    <path d="M0 86 H30 V60 H88"/>
    <path d="M600 48 H536 V16 H462 V48"/>
    <path d="M600 114 H552 V76 H488 V48"/>
    <path d="M0 328 H42 V358 H102 V336 H160"/>
    <path d="M600 310 H542 V346 H484 V370 H418"/>
  </g>
  <g fill="#0a3572" opacity="0.11">
    <circle cx="52" cy="38" r="3.5"/><circle cx="122" cy="38" r="3.5"/>
    <circle cx="30" cy="86" r="2.5"/><circle cx="536" cy="48" r="3.5"/>
    <circle cx="462" cy="48" r="3.5"/><circle cx="42" cy="328" r="3"/>
    <circle cx="102" cy="336" r="2.5"/><circle cx="484" cy="346" r="3"/>
  </g>

  <!-- Glow orbs -->
  <circle cx="526" cy="72" r="112" fill="#0a3572" fill-opacity="0.04"/>
  <circle cx="526" cy="72" r="68" fill="#1565c0" fill-opacity="0.055"/>
  <circle cx="526" cy="72" r="36" fill="#1976d2" fill-opacity="0.08"/>
  <circle cx="526" cy="72" r="16" fill="#1976d2" fill-opacity="0.14"/>
  <circle cx="66" cy="346" r="80" fill="#00695c" fill-opacity="0.05"/>
  <circle cx="66" cy="346" r="46" fill="#1de9b6" fill-opacity="0.07"/>

  <!-- AI neural ring -->
  <g opacity="0.09" stroke="#1565c0" stroke-width="1.2" fill="none">
    <circle cx="526" cy="72" r="56"/>
    <circle cx="526" cy="72" r="40"/>
    <line x1="526" y1="16" x2="526" y2="128"/>
    <line x1="470" y1="72" x2="582" y2="72"/>
    <line x1="487" y1="31" x2="565" y2="113"/>
    <line x1="565" y1="31" x2="487" y2="113"/>
  </g>
  <circle cx="526" cy="72" r="6" fill="#1565c0" fill-opacity="0.18"/>

  <!-- Floating particles -->
  <g opacity="0.25">
    <rect x="10" y="155" width="9" height="9" rx="2" fill="#1565c0" transform="rotate(18,14,160)"/>
    <rect x="18" y="224" width="7" height="7" rx="1.5" fill="#1de9b6" transform="rotate(-12,22,228)"/>
    <circle cx="6" cy="192" r="3.5" fill="#0a3572"/>
    <circle cx="28" cy="170" r="2.5" fill="#00897b"/>
  </g>

  <!-- ===== LEFT CONTENT ===== -->
  <rect x="42" y="26" width="248" height="27" rx="13.5" fill="url(#blueG)" filter="url(#glowB)"/>
  <circle cx="57" cy="39.5" r="6" fill="#ffffff" fill-opacity="0.22"/>
  <circle cx="57" cy="39.5" r="3" fill="#ffffff"/>
  <text x="166" y="44" text-anchor="middle" font-family="'Segoe UI',Arial,sans-serif" font-size="11" font-weight="700" fill="#ffffff" letter-spacing="1.3">LEAD NURTURING GUIDE 2026</text>

  <text x="42" y="100" font-family="'Segoe UI',Arial,sans-serif" font-size="30" font-weight="900" fill="#0d2240">GoHighLevel</text>
  <text x="42" y="136" font-family="'Segoe UI',Arial,sans-serif" font-size="24" font-weight="800" fill="#0a3572">Lead Nurturing</text>
  <text x="42" y="166" font-family="'Segoe UI',Arial,sans-serif" font-size="24" font-weight="800" fill="#00695c">Automation</text>

  <rect x="42" y="176" width="310" height="5" rx="2.5" fill="url(#accentBar)"/>

  <text x="42" y="202" font-family="'Segoe UI',Arial,sans-serif" font-size="12" fill="#3a5a7a">Turn Cold Leads into Paying Clients</text>
  <text x="42" y="220" font-family="'Segoe UI',Arial,sans-serif" font-size="12" fill="#3a5a7a">with Smart Workflows — 24/7</text>

  <!-- Feature chips -->
  <rect x="42" y="236" width="86" height="24" rx="12" fill="#e3f2fd" stroke="#1976d2" stroke-width="0.8"/>
  <text x="85" y="252" text-anchor="middle" font-family="'Segoe UI',Arial,sans-serif" font-size="9.5" font-weight="600" fill="#0a3572">SMS + Email</text>
  <rect x="138" y="236" width="76" height="24" rx="12" fill="#e0f7f4" stroke="#00897b" stroke-width="0.8"/>
  <text x="176" y="252" text-anchor="middle" font-family="'Segoe UI',Arial,sans-serif" font-size="9.5" font-weight="600" fill="#00695c">AI Follow-Up</text>
  <rect x="224" y="236" width="82" height="24" rx="12" fill="#e3f2fd" stroke="#1976d2" stroke-width="0.8"/>
  <text x="265" y="252" text-anchor="middle" font-family="'Segoe UI',Arial,sans-serif" font-size="9.5" font-weight="600" fill="#0a3572">Auto Pipline</text>

  <!-- Stats row -->
  <rect x="42" y="272" width="298" height="46" rx="10" fill="#ffffff" stroke="#dde8f5" stroke-width="1" filter="url(#cardSh)"/>
  <text x="86" y="291" text-anchor="middle" font-family="'Segoe UI',Arial,sans-serif" font-size="18" font-weight="800" fill="#0a3572">10x</text>
  <text x="86" y="308" text-anchor="middle" font-family="'Segoe UI',Arial,sans-serif" font-size="9" fill="#8ba0b8">More Conversions</text>
  <rect x="154" y="282" width="1" height="24" fill="#e0e8f5"/>
  <text x="198" y="291" text-anchor="middle" font-family="'Segoe UI',Arial,sans-serif" font-size="18" font-weight="800" fill="#00695c">24/7</text>
  <text x="198" y="308" text-anchor="middle" font-family="'Segoe UI',Arial,sans-serif" font-size="9" fill="#8ba0b8">Auto Nurturing</text>
  <rect x="262" y="282" width="1" height="24" fill="#e0e8f5"/>
  <text x="298" y="291" text-anchor="middle" font-family="'Segoe UI',Arial,sans-serif" font-size="18" font-weight="800" fill="#0a3572">60%</text>
  <text x="298" y="308" text-anchor="middle" font-family="'Segoe UI',Arial,sans-serif" font-size="9" fill="#8ba0b8">Less Manual Work</text>

  <!-- CTAs -->
  <rect x="42" y="334" width="144" height="30" rx="10" fill="url(#tealG)"/>
  <text x="114" y="353" text-anchor="middle" font-family="'Segoe UI',Arial,sans-serif" font-size="12" font-weight="700" fill="#ffffff">grow-highlevel.com</text>
  <rect x="196" y="334" width="136" height="30" rx="10" fill="#e3f2fd" stroke="#1565c0" stroke-width="1"/>
  <text x="264" y="353" text-anchor="middle" font-family="'Segoe UI',Arial,sans-serif" font-size="11" font-weight="700" fill="#0a3572">Book Free Call</text>

  <text x="42" y="392" font-family="'Segoe UI',Arial,sans-serif" font-size="9" fill="#a0b4c8">grow-highlevel.com · GoHighLevel Lead Nurturing Automation Workflows 2026</text>

  <!-- ===== RIGHT: Nurturing workflow card ===== -->
  <rect x="354" y="76" width="228" height="306" rx="16" fill="#ffffff" filter="url(#softSh)"/>
  <rect x="354" y="76" width="228" height="42" rx="16" fill="url(#blueG)"/>
  <rect x="354" y="100" width="228" height="18" fill="url(#blueG)"/>
  <circle cx="370" cy="97" r="5" fill="#fc5f5f"/>
  <circle cx="385" cy="97" r="5" fill="#ffbd2e"/>
  <circle cx="400" cy="97" r="5" fill="#28ca42"/>
  <text x="468" y="112" text-anchor="middle" font-family="'Segoe UI',Arial,sans-serif" font-size="9" fill="#b3d4f8">Nurture Workflow — Active</text>

  <!-- Nurture flow steps -->
  <text x="368" y="136" font-family="'Segoe UI',Arial,sans-serif" font-size="9.5" font-weight="700" fill="#0a3572">Lead Nurture Sequence</text>

  <!-- Day 0 -->
  <rect x="364" y="144" width="204" height="28" rx="7" fill="#e3f2fd"/>
  <circle cx="380" cy="158" r="8" fill="#0a3572"/>
  <text x="380" y="162" text-anchor="middle" font-family="'Segoe UI',Arial,sans-serif" font-size="7" font-weight="700" fill="#fff">D0</text>
  <text x="396" y="155" font-family="'Segoe UI',Arial,sans-serif" font-size="9.5" font-weight="600" fill="#0d2240">Welcome Email</text>
  <text x="396" y="166" font-family="'Segoe UI',Arial,sans-serif" font-size="8.5" fill="#5a7a9a">Instant · Auto sent</text>
  <line x1="468" y1="173" x2="468" y2="183" stroke="#9fe1cb" stroke-width="1.5" marker-end="url(#arr)"/>

  <!-- Day 1 -->
  <rect x="364" y="185" width="204" height="28" rx="7" fill="#edfbf5"/>
  <circle cx="380" cy="199" r="8" fill="#00695c"/>
  <text x="380" y="203" text-anchor="middle" font-family="'Segoe UI',Arial,sans-serif" font-size="7" font-weight="700" fill="#fff">D1</text>
  <text x="396" y="196" font-family="'Segoe UI',Arial,sans-serif" font-size="9.5" font-weight="600" fill="#0d2240">SMS Follow-Up</text>
  <text x="396" y="207" font-family="'Segoe UI',Arial,sans-serif" font-size="8.5" fill="#5a8a7a">+24 hours delay</text>
  <line x1="468" y1="214" x2="468" y2="224" stroke="#9fe1cb" stroke-width="1.5" marker-end="url(#arr)"/>

  <!-- Day 3 -->
  <rect x="364" y="226" width="204" height="28" rx="7" fill="#e3f2fd"/>
  <circle cx="380" cy="240" r="8" fill="#0a3572"/>
  <text x="380" y="244" text-anchor="middle" font-family="'Segoe UI',Arial,sans-serif" font-size="7" font-weight="700" fill="#fff">D3</text>
  <text x="396" y="237" font-family="'Segoe UI',Arial,sans-serif" font-size="9.5" font-weight="600" fill="#0d2240">Value Email</text>
  <text x="396" y="248" font-family="'Segoe UI',Arial,sans-serif" font-size="8.5" fill="#5a7a9a">Case study / tip</text>
  <line x1="468" y1="255" x2="468" y2="265" stroke="#9fe1cb" stroke-width="1.5" marker-end="url(#arr)"/>

  <!-- Day 7 -->
  <rect x="364" y="267" width="204" height="28" rx="7" fill="#edfbf5"/>
  <circle cx="380" cy="281" r="8" fill="#00695c"/>
  <text x="380" y="285" text-anchor="middle" font-family="'Segoe UI',Arial,sans-serif" font-size="7" font-weight="700" fill="#fff">D7</text>
  <text x="396" y="278" font-family="'Segoe UI',Arial,sans-serif" font-size="9.5" font-weight="600" fill="#0d2240">Book Call CTA</text>
  <text x="396" y="289" font-family="'Segoe UI',Arial,sans-serif" font-size="8.5" fill="#5a8a7a">Direct booking link</text>
  <line x1="468" y1="296" x2="468" y2="306" stroke="#9fe1cb" stroke-width="1.5" marker-end="url(#arr)"/>

  <!-- Result -->
  <rect x="364" y="308" width="204" height="28" rx="7" fill="url(#tealG)"/>
  <text x="466" y="326" text-anchor="middle" font-family="'Segoe UI',Arial,sans-serif" font-size="10" font-weight="700" fill="#ffffff">Client Converted ✓</text>

  <!-- CTA card bottom -->
  <rect x="364" y="348" width="204" height="26" rx="8" fill="#e3f2fd" stroke="#1976d2" stroke-width="0.8"/>
  <text x="466" y="365" text-anchor="middle" font-family="'Segoe UI',Arial,sans-serif" font-size="9.5" font-weight="600" fill="#0a3572">grow-highlevel.com/services</text>

  <!-- AI tag -->
  <rect x="378" y="62" width="132" height="20" rx="10" fill="#e1f5ee" stroke="#1de9b6" stroke-width="0.8"/>
  <circle cx="392" cy="72" r="5" fill="#00897b"/>
  <circle cx="392" cy="72" r="2.5" fill="#ffffff"/>
  <text x="452" y="76" text-anchor="middle" font-family="'Segoe UI',Arial,sans-serif" font-size="9.5" font-weight="700" fill="#00695c">AI-Powered Nurturing</text>
</svg>
