<svg width="600" height="400" viewBox="0 0 600 400" xmlns="http://www.w3.org/2000/svg">
  <defs>
    <linearGradient id="pageBg" x1="0" y1="0" x2="1" y2="1">
      <stop offset="0%" stop-color="#f0f8ff"/>
      <stop offset="50%" stop-color="#ffffff"/>
      <stop offset="100%" stop-color="#f0fdf8"/>
    </linearGradient>
    <linearGradient id="blueGrad" x1="0" y1="0" x2="1" y2="1">
      <stop offset="0%" stop-color="#0d47a1"/>
      <stop offset="100%" stop-color="#1565c0"/>
    </linearGradient>
    <linearGradient id="tealGrad" x1="0" y1="0" x2="1" y2="1">
      <stop offset="0%" stop-color="#00796b"/>
      <stop offset="100%" stop-color="#26c6a0"/>
    </linearGradient>
    <linearGradient id="goldGrad" x1="0" y1="0" x2="1" y2="1">
      <stop offset="0%" stop-color="#f57f17"/>
      <stop offset="100%" stop-color="#fbc02d"/>
    </linearGradient>
    <linearGradient id="accentLine" x1="0" y1="0" x2="1" y2="0">
      <stop offset="0%" stop-color="#0d47a1"/>
      <stop offset="50%" stop-color="#0097a7"/>
      <stop offset="100%" stop-color="#26c6a0"/>
    </linearGradient>
    <linearGradient id="card1" x1="0" y1="0" x2="0" y2="1">
      <stop offset="0%" stop-color="#e3f2fd"/>
      <stop offset="100%" stop-color="#bbdefb"/>
    </linearGradient>
    <linearGradient id="card2" x1="0" y1="0" x2="0" y2="1">
      <stop offset="0%" stop-color="#e0f7f4"/>
      <stop offset="100%" stop-color="#b2dfdb"/>
    </linearGradient>
    <linearGradient id="card3" x1="0" y1="0" x2="0" y2="1">
      <stop offset="0%" stop-color="#fff8e1"/>
      <stop offset="100%" stop-color="#ffecb3"/>
    </linearGradient>
    <filter id="softSh">
      <feDropShadow dx="0" dy="4" stdDeviation="12" flood-color="#0d47a1" flood-opacity="0.11"/>
    </filter>
    <filter id="cardSh">
      <feDropShadow dx="0" dy="3" stdDeviation="8" flood-color="#0d47a1" flood-opacity="0.09"/>
    </filter>
    <filter id="glowBlue">
      <feDropShadow dx="0" dy="0" stdDeviation="6" flood-color="#1565c0" flood-opacity="0.25"/>
    </filter>
  </defs>
  <rect width="600" height="400" fill="url(#pageBg)" rx="14"/>
  <g stroke="#1565c0" stroke-width="0.7" fill="none" opacity="0.07">
    <path d="M0 40 H60 V15 H130 V40 H200"/><path d="M0 90 H35 V65 H95 V90"/>
    <path d="M600 50 H535 V25 H465 V50"/><path d="M600 130 H565 V90 H500 V60"/>
    <path d="M0 330 H50 V360 H110 V340 H170"/><path d="M600 310 H545 V345 H490 V370 H420"/>
  </g>
  <g fill="#0d47a1" opacity="0.13">
    <circle cx="60" cy="40" r="3.5"/><circle cx="130" cy="40" r="3.5"/>
    <circle cx="95" cy="65" r="2.5"/><circle cx="535" cy="50" r="3.5"/>
    <circle cx="465" cy="50" r="3.5"/><circle cx="500" cy="90" r="2.5"/>
    <circle cx="50" cy="330" r="3"/><circle cx="110" cy="340" r="2.5"/>
  </g>
  <circle cx="540" cy="72" r="100" fill="#0d47a1" fill-opacity="0.04"/>
  <circle cx="540" cy="72" r="64" fill="#1565c0" fill-opacity="0.055"/>
  <circle cx="540" cy="72" r="36" fill="#1976d2" fill-opacity="0.07"/>
  <circle cx="60" cy="350" r="80" fill="#00796b" fill-opacity="0.05"/>
  <circle cx="60" cy="350" r="46" fill="#26c6a0" fill-opacity="0.07"/>
  <g opacity="0.28">
    <rect x="14" y="155" width="9" height="9" rx="2" fill="#1565c0" transform="rotate(18,18,160)"/>
    <rect x="22" y="220" width="7" height="7" rx="1.5" fill="#26c6a0" transform="rotate(-12,26,224)"/>
    <circle cx="10" cy="190" r="3.5" fill="#0d47a1"/>
    <circle cx="32" cy="170" r="2.5" fill="#26c6a0"/>
  </g>
  <g opacity="0.1" stroke="#1565c0" stroke-width="1.2" fill="none">
    <circle cx="540" cy="72" r="52"/>
    <circle cx="540" cy="72" r="38"/>
    <line x1="540" y1="20" x2="540" y2="124"/>
    <line x1="488" y1="72" x2="592" y2="72"/>
    <line x1="503" y1="35" x2="577" y2="109"/>
    <line x1="577" y1="35" x2="503" y2="109"/>
  </g>
  <!-- Left content -->
  <rect x="44" y="28" width="210" height="28" rx="14" fill="url(#blueGrad)" filter="url(#glowBlue)"/>
  <circle cx="60" cy="42" r="6" fill="#ffffff" fill-opacity="0.25"/>
  <circle cx="60" cy="42" r="3" fill="#ffffff"/>
  <text x="136" y="47" text-anchor="middle" font-family="'Segoe UI',Arial,sans-serif" font-size="11" font-weight="700" fill="#ffffff" letter-spacing="1.8">PRICING GUIDE 2026</text>
  <text x="44" y="108" font-family="'Segoe UI',Arial,sans-serif" font-size="40" font-weight="900" fill="#0d2240">GoHighLevel</text>
  <text x="44" y="152" font-family="'Segoe UI',Arial,sans-serif" font-size="36" font-weight="800" fill="#0d47a1">Pricing Plans</text>
  <rect x="44" y="162" width="310" height="5" rx="2.5" fill="url(#accentLine)"/>
  <text x="44" y="190" font-family="'Segoe UI',Arial,sans-serif" font-size="13" fill="#3a5a7a">Every Plan Explained — Starter,</text>
  <text x="44" y="210" font-family="'Segoe UI',Arial,sans-serif" font-size="13" fill="#3a5a7a">Unlimited &amp; SaaS Pro for 2026</text>
  <!-- 3 Mini pricing cards -->
  <rect x="44" y="228" width="86" height="78" rx="12" fill="url(#card1)" filter="url(#cardSh)"/>
  <rect x="44" y="228" width="86" height="5" rx="2.5" fill="url(#blueGrad)"/>
  <text x="87" y="252" text-anchor="middle" font-family="'Segoe UI',Arial,sans-serif" font-size="10" font-weight="700" fill="#0d47a1">STARTER</text>
  <text x="87" y="272" text-anchor="middle" font-family="'Segoe UI',Arial,sans-serif" font-size="22" font-weight="900" fill="#0d47a1">$97</text>
  <text x="87" y="287" text-anchor="middle" font-family="'Segoe UI',Arial,sans-serif" font-size="9" fill="#5a7a9a">/month</text>
  <text x="87" y="300" text-anchor="middle" font-family="'Segoe UI',Arial,sans-serif" font-size="8.5" fill="#6b8aaa">1 Business</text>
  <rect x="140" y="220" width="96" height="90" rx="12" fill="url(#card2)" filter="url(#cardSh)" stroke="#26c6a0" stroke-width="1.5"/>
  <rect x="140" y="220" width="96" height="5" rx="2.5" fill="url(#tealGrad)"/>
  <rect x="158" y="228" width="60" height="15" rx="7" fill="#00796b" fill-opacity="0.2"/>
  <text x="188" y="239" text-anchor="middle" font-family="'Segoe UI',Arial,sans-serif" font-size="8" font-weight="700" fill="#00695c">★ POPULAR</text>
  <text x="188" y="256" text-anchor="middle" font-family="'Segoe UI',Arial,sans-serif" font-size="10" font-weight="700" fill="#00796b">UNLIMITED</text>
  <text x="188" y="276" text-anchor="middle" font-family="'Segoe UI',Arial,sans-serif" font-size="22" font-weight="900" fill="#00796b">$297</text>
  <text x="188" y="291" text-anchor="middle" font-family="'Segoe UI',Arial,sans-serif" font-size="9" fill="#5a8a7a">/month</text>
  <text x="188" y="304" text-anchor="middle" font-family="'Segoe UI',Arial,sans-serif" font-size="8.5" fill="#3a7a6a">Agencies</text>
  <rect x="248" y="228" width="92" height="78" rx="12" fill="url(#card3)" filter="url(#cardSh)"/>
  <rect x="248" y="228" width="92" height="5" rx="2.5" fill="url(#goldGrad)"/>
  <text x="294" y="252" text-anchor="middle" font-family="'Segoe UI',Arial,sans-serif" font-size="10" font-weight="700" fill="#f57f17">SAAS PRO</text>
  <text x="294" y="272" text-anchor="middle" font-family="'Segoe UI',Arial,sans-serif" font-size="22" font-weight="900" fill="#e65100">$497</text>
  <text x="294" y="287" text-anchor="middle" font-family="'Segoe UI',Arial,sans-serif" font-size="9" fill="#8a6a2a">/month</text>
  <text x="294" y="300" text-anchor="middle" font-family="'Segoe UI',Arial,sans-serif" font-size="8.5" fill="#8a6a2a">White-Label</text>
  <!-- CTA row -->
  <rect x="44" y="328" width="150" height="30" rx="10" fill="url(#tealGrad)"/>
  <text x="119" y="347" text-anchor="middle" font-family="'Segoe UI',Arial,sans-serif" font-size="11" font-weight="700" fill="#ffffff">Free 14-Day Trial</text>
  <rect x="206" y="328" width="130" height="30" rx="10" fill="#e3f2fd" stroke="#1565c0" stroke-width="1"/>
  <text x="271" y="347" text-anchor="middle" font-family="'Segoe UI',Arial,sans-serif" font-size="11" font-weight="700" fill="#0d47a1">Compare Plans</text>
  <rect x="44" y="369" width="196" height="22" rx="8" fill="url(#blueGrad)" fill-opacity="0.1" stroke="#1565c0" stroke-width="0.8"/>
  <circle cx="58" cy="380" r="5" fill="#1565c0"/>
  <text x="72" y="384" font-family="'Segoe UI',Arial,sans-serif" font-size="11" font-weight="600" fill="#0d47a1">grow-highlevel.com</text>
  <text x="44" y="398" font-family="'Segoe UI',Arial,sans-serif" font-size="9" fill="#8ba0b8">By Umair Yousaf · GoHighLevel Expert</text>
  <!-- Right card -->
  <rect x="356" y="80" width="226" height="298" rx="16" fill="#ffffff" filter="url(#softSh)"/>
  <rect x="356" y="80" width="226" height="44" rx="16" fill="url(#blueGrad)"/>
  <rect x="356" y="106" width="226" height="18" fill="url(#blueGrad)"/>
  <text x="469" y="103" text-anchor="middle" font-family="'Segoe UI',Arial,sans-serif" font-size="11" font-weight="700" fill="#ffffff">What's Included</text>
  <text x="469" y="118" text-anchor="middle" font-family="'Segoe UI',Arial,sans-serif" font-size="9" fill="#b3d4f8">All Plans Overview</text>
  <rect x="368" y="132" width="202" height="26" rx="7" fill="#f0f8ff"/>
  <circle cx="384" cy="145" r="7" fill="#1565c0"/>
  <text x="384" y="149" text-anchor="middle" font-family="'Segoe UI',Arial,sans-serif" font-size="9" font-weight="700" fill="#ffffff">✓</text>
  <text x="398" y="149" font-family="'Segoe UI',Arial,sans-serif" font-size="10" fill="#0d2240">CRM &amp; Pipeline Management</text>
  <rect x="368" y="163" width="202" height="26" rx="7" fill="#ffffff"/>
  <circle cx="384" cy="176" r="7" fill="#00796b"/>
  <text x="384" y="180" text-anchor="middle" font-family="'Segoe UI',Arial,sans-serif" font-size="9" font-weight="700" fill="#ffffff">✓</text>
  <text x="398" y="180" font-family="'Segoe UI',Arial,sans-serif" font-size="10" fill="#0d2240">Email + SMS Automation</text>
  <rect x="368" y="194" width="202" height="26" rx="7" fill="#f0f8ff"/>
  <circle cx="384" cy="207" r="7" fill="#1565c0"/>
  <text x="384" y="211" text-anchor="middle" font-family="'Segoe UI',Arial,sans-serif" font-size="9" font-weight="700" fill="#ffffff">✓</text>
  <text x="398" y="211" font-family="'Segoe UI',Arial,sans-serif" font-size="10" fill="#0d2240">Funnel &amp; Website Builder</text>
  <rect x="368" y="225" width="202" height="26" rx="7" fill="#ffffff"/>
  <circle cx="384" cy="238" r="7" fill="#00796b"/>
  <text x="384" y="242" text-anchor="middle" font-family="'Segoe UI',Arial,sans-serif" font-size="9" font-weight="700" fill="#ffffff">✓</text>
  <text x="398" y="242" font-family="'Segoe UI',Arial,sans-serif" font-size="10" fill="#0d2240">Calendar &amp; Booking System</text>
  <rect x="368" y="256" width="202" height="26" rx="7" fill="#f0f8ff"/>
  <circle cx="384" cy="269" r="7" fill="#f57f17"/>
  <text x="384" y="273" text-anchor="middle" font-family="'Segoe UI',Arial,sans-serif" font-size="9" font-weight="700" fill="#ffffff">✓</text>
  <text x="398" y="273" font-family="'Segoe UI',Arial,sans-serif" font-size="10" fill="#0d2240">AI Chatbot (All Plans)</text>
  <rect x="368" y="287" width="202" height="26" rx="7" fill="#ffffff"/>
  <circle cx="384" cy="300" r="7" fill="#00796b"/>
  <text x="384" y="304" text-anchor="middle" font-family="'Segoe UI',Arial,sans-serif" font-size="9" font-weight="700" fill="#ffffff">✓</text>
  <text x="398" y="304" font-family="'Segoe UI',Arial,sans-serif" font-size="10" fill="#0d2240">White-Label (SaaS Pro)</text>
  <rect x="368" y="320" width="202" height="44" rx="10" fill="url(#tealGrad)"/>
  <text x="469" y="338" text-anchor="middle" font-family="'Segoe UI',Arial,sans-serif" font-size="11" font-weight="700" fill="#ffffff">Try Free for 14 Days</text>
  <text x="469" y="354" text-anchor="middle" font-family="'Segoe UI',Arial,sans-serif" font-size="9" fill="#cdf5e7">No credit card required</text>
  <rect x="390" y="64" width="150" height="22" rx="11" fill="#e1f5ee" stroke="#26c6a0" stroke-width="1"/>
  <circle cx="405" cy="75" r="5" fill="#26c6a0"/>
  <circle cx="405" cy="75" r="2.5" fill="#ffffff"/>
  <text x="465" y="79" text-anchor="middle" font-family="'Segoe UI',Arial,sans-serif" font-size="10" font-weight="700" fill="#00695c">AI-Powered Platform</text>
</svg>
