<svg width="600" height="400" viewBox="0 0 600 400" xmlns="http://www.w3.org/2000/svg">
  <defs>
    <linearGradient id="pageBg" x1="0" y1="0" x2="1" y2="1">
      <stop offset="0%" stop-color="#f0f6ff"/>
      <stop offset="50%" stop-color="#ffffff"/>
      <stop offset="100%" stop-color="#edfbf5"/>
    </linearGradient>
    <linearGradient id="blueG" x1="0" y1="0" x2="1" y2="1">
      <stop offset="0%" stop-color="#0a2d6e"/>
      <stop offset="100%" stop-color="#1565c0"/>
    </linearGradient>
    <linearGradient id="tealG" x1="0" y1="0" x2="1" y2="1">
      <stop offset="0%" stop-color="#006064"/>
      <stop offset="100%" stop-color="#1de9b6"/>
    </linearGradient>
    <linearGradient id="accentBar" x1="0" y1="0" x2="1" y2="0">
      <stop offset="0%" stop-color="#0a2d6e"/>
      <stop offset="45%" stop-color="#0097a7"/>
      <stop offset="100%" stop-color="#1de9b6"/>
    </linearGradient>
    <linearGradient id="cardBg" x1="0" y1="0" x2="0" y2="1">
      <stop offset="0%" stop-color="#ffffff"/>
      <stop offset="100%" stop-color="#f4f9ff"/>
    </linearGradient>
    <filter id="softSh">
      <feDropShadow dx="0" dy="4" stdDeviation="12" flood-color="#0a2d6e" flood-opacity="0.11"/>
    </filter>
    <filter id="cardSh">
      <feDropShadow dx="0" dy="2" stdDeviation="7" flood-color="#0a2d6e" flood-opacity="0.09"/>
    </filter>
    <filter id="glowB">
      <feDropShadow dx="0" dy="0" stdDeviation="8" flood-color="#1565c0" flood-opacity="0.20"/>
    </filter>
    <marker id="arrD" viewBox="0 0 10 10" refX="5" refY="8" markerWidth="5" markerHeight="5" orient="auto">
      <path d="M1 2L5 8L9 2" fill="none" stroke="#9fe1cb" stroke-width="1.5" stroke-linecap="round"/>
    </marker>
  </defs>

  <rect width="600" height="400" fill="url(#pageBg)" rx="14"/>

  <!-- Circuit lines -->
  <g stroke="#1565c0" stroke-width="0.55" fill="none" opacity="0.07">
    <path d="M0 36 H50 V10 H120 V36 H186"/>
    <path d="M0 84 H28 V58 H86"/>
    <path d="M600 46 H534 V14 H460 V46"/>
    <path d="M600 112 H550 V74 H486 V46"/>
    <path d="M0 326 H40 V356 H100 V334 H158"/>
    <path d="M600 308 H540 V344 H482 V368 H416"/>
  </g>
  <g fill="#0a2d6e" opacity="0.10">
    <circle cx="50" cy="36" r="3.5"/><circle cx="120" cy="36" r="3.5"/>
    <circle cx="28" cy="84" r="2.5"/><circle cx="534" cy="46" r="3.5"/>
    <circle cx="460" cy="46" r="3.5"/><circle cx="40" cy="326" r="3"/>
    <circle cx="100" cy="334" r="2.5"/><circle cx="482" cy="344" r="3"/>
  </g>

  <!-- Glow orbs -->
  <circle cx="522" cy="70" r="115" fill="#0a2d6e" fill-opacity="0.04"/>
  <circle cx="522" cy="70" r="70" fill="#1565c0" fill-opacity="0.055"/>
  <circle cx="522" cy="70" r="38" fill="#1976d2" fill-opacity="0.08"/>
  <circle cx="522" cy="70" r="17" fill="#1976d2" fill-opacity="0.13"/>
  <circle cx="64" cy="344" r="78" fill="#006064" fill-opacity="0.05"/>
  <circle cx="64" cy="344" r="44" fill="#1de9b6" fill-opacity="0.07"/>

  <!-- Neural ring -->
  <g opacity="0.09" stroke="#1565c0" stroke-width="1.2" fill="none">
    <circle cx="522" cy="70" r="57"/>
    <circle cx="522" cy="70" r="40"/>
    <line x1="522" y1="13" x2="522" y2="127"/>
    <line x1="465" y1="70" x2="579" y2="70"/>
    <line x1="482" y1="29" x2="562" y2="111"/>
    <line x1="562" y1="29" x2="482" y2="111"/>
  </g>
  <circle cx="522" cy="70" r="6" fill="#1565c0" fill-opacity="0.18"/>

  <!-- Floating particles -->
  <g opacity="0.24">
    <rect x="10" y="152" width="9" height="9" rx="2" fill="#1565c0" transform="rotate(18,14,157)"/>
    <rect x="17" y="222" width="7" height="7" rx="1.5" fill="#1de9b6" transform="rotate(-12,21,226)"/>
    <circle cx="6" cy="190" r="3.5" fill="#0a2d6e"/>
    <circle cx="27" cy="170" r="2.5" fill="#00897b"/>
  </g>

  <!-- ===== LEFT CONTENT ===== -->
  <rect x="42" y="24" width="240" height="27" rx="13.5" fill="url(#blueG)" filter="url(#glowB)"/>
  <circle cx="57" cy="37.5" r="6" fill="#ffffff" fill-opacity="0.22"/>
  <circle cx="57" cy="37.5" r="3" fill="#ffffff"/>
  <text x="162" y="42" text-anchor="middle" font-family="'Segoe UI',Arial,sans-serif" font-size="11" font-weight="700" fill="#ffffff" letter-spacing="1.3">AGENCY SETUP GUIDE 2026</text>

  <text x="42" y="104" font-family="'Segoe UI',Arial,sans-serif" font-size="36" font-weight="900" fill="#0d2240">GoHighLevel</text>
  <text x="42" y="144" font-family="'Segoe UI',Arial,sans-serif" font-size="28" font-weight="800" fill="#0a2d6e">Agency Setup</text>

  <rect x="42" y="154" width="310" height="5" rx="2.5" fill="url(#accentBar)"/>

  <text x="42" y="180" font-family="'Segoe UI',Arial,sans-serif" font-size="12.5" fill="#3a5a7a">The Complete Step-by-Step Guide</text>
  <text x="42" y="198" font-family="'Segoe UI',Arial,sans-serif" font-size="12.5" fill="#3a5a7a">for US Agencies in 2026</text>

  <!-- Agency structure visual chips -->
  <rect x="42" y="218" width="88" height="24" rx="12" fill="#e3f2fd" stroke="#1976d2" stroke-width="0.8"/>
  <text x="86" y="234" text-anchor="middle" font-family="'Segoe UI',Arial,sans-serif" font-size="9.5" font-weight="600" fill="#0a2d6e">Sub-Accounts</text>
  <rect x="140" y="218" width="78" height="24" rx="12" fill="#e0f7f4" stroke="#00897b" stroke-width="0.8"/>
  <text x="179" y="234" text-anchor="middle" font-family="'Segoe UI',Arial,sans-serif" font-size="9.5" font-weight="600" fill="#006064">Snapshots</text>
  <rect x="228" y="218" width="88" height="24" rx="12" fill="#e3f2fd" stroke="#1976d2" stroke-width="0.8"/>
  <text x="272" y="234" text-anchor="middle" font-family="'Segoe UI',Arial,sans-serif" font-size="9.5" font-weight="600" fill="#0a2d6e">White-Label</text>

  <!-- Stats row -->
  <rect x="42" y="258" width="300" height="46" rx="10" fill="#ffffff" stroke="#dde8f5" stroke-width="1" filter="url(#cardSh)"/>
  <text x="88" y="277" text-anchor="middle" font-family="'Segoe UI',Arial,sans-serif" font-size="18" font-weight="800" fill="#0a2d6e">200+</text>
  <text x="88" y="294" text-anchor="middle" font-family="'Segoe UI',Arial,sans-serif" font-size="9" fill="#8ba0b8">Agencies Built</text>
  <rect x="156" y="268" width="1" height="24" fill="#e0e8f5"/>
  <text x="200" y="277" text-anchor="middle" font-family="'Segoe UI',Arial,sans-serif" font-size="18" font-weight="800" fill="#006064">3+</text>
  <text x="200" y="294" text-anchor="middle" font-family="'Segoe UI',Arial,sans-serif" font-size="9" fill="#8ba0b8">Yrs GHL Expert</text>
  <rect x="264" y="268" width="1" height="24" fill="#e0e8f5"/>
  <text x="300" y="277" text-anchor="middle" font-family="'Segoe UI',Arial,sans-serif" font-size="18" font-weight="800" fill="#0a2d6e">USA</text>
  <text x="300" y="294" text-anchor="middle" font-family="'Segoe UI',Arial,sans-serif" font-size="9" fill="#8ba0b8">Market Focus</text>

  <!-- CTAs -->
  <rect x="42" y="322" width="148" height="30" rx="10" fill="url(#tealG)"/>
  <text x="116" y="341" text-anchor="middle" font-family="'Segoe UI',Arial,sans-serif" font-size="12" font-weight="700" fill="#ffffff">grow-highlevel.com</text>
  <rect x="200" y="322" width="140" height="30" rx="10" fill="#e3f2fd" stroke="#1565c0" stroke-width="1"/>
  <text x="270" y="341" text-anchor="middle" font-family="'Segoe UI',Arial,sans-serif" font-size="11" font-weight="700" fill="#0a2d6e">Book Free Call</text>

  <text x="42" y="390" font-family="'Segoe UI',Arial,sans-serif" font-size="9" fill="#a0b4c8">grow-highlevel.com · GoHighLevel Agency Setup Complete Guide 2026</text>

  <!-- ===== RIGHT: Agency dashboard card ===== -->
  <rect x="356" y="74" width="228" height="306" rx="16" fill="url(#cardBg)" filter="url(#softSh)"/>
  <rect x="356" y="74" width="228" height="44" rx="16" fill="url(#blueG)"/>
  <rect x="356" y="100" width="228" height="18" fill="url(#blueG)"/>
  <circle cx="372" cy="97" r="5" fill="#fc5f5f"/>
  <circle cx="387" cy="97" r="5" fill="#ffbd2e"/>
  <circle cx="402" cy="97" r="5" fill="#28ca42"/>
  <text x="470" y="112" text-anchor="middle" font-family="'Segoe UI',Arial,sans-serif" font-size="9" fill="#b3d4f8">Agency Dashboard</text>

  <!-- Agency structure -->
  <text x="370" y="136" font-family="'Segoe UI',Arial,sans-serif" font-size="9.5" font-weight="700" fill="#0a2d6e">Agency Structure</text>

  <!-- Agency master account -->
  <rect x="366" y="144" width="206" height="26" rx="7" fill="#e3f2fd" stroke="#1565c0" stroke-width="0.8"/>
  <text x="469" y="161" text-anchor="middle" font-family="'Segoe UI',Arial,sans-serif" font-size="9.5" font-weight="700" fill="#0a2d6e">🏢 Agency Master Account</text>

  <!-- Arrow down -->
  <line x1="469" y1="171" x2="469" y2="181" stroke="#9fe1cb" stroke-width="1.5" marker-end="url(#arrD)"/>

  <!-- Sub-account row -->
  <rect x="366" y="183" width="92" height="26" rx="7" fill="#edfbf5" stroke="#00897b" stroke-width="0.8"/>
  <text x="412" y="199" text-anchor="middle" font-family="'Segoe UI',Arial,sans-serif" font-size="8.5" font-weight="600" fill="#006064">Client A</text>

  <rect x="480" y="183" width="92" height="26" rx="7" fill="#edfbf5" stroke="#00897b" stroke-width="0.8"/>
  <text x="526" y="199" text-anchor="middle" font-family="'Segoe UI',Arial,sans-serif" font-size="8.5" font-weight="600" fill="#006064">Client B</text>

  <!-- More sub-accounts -->
  <line x1="469" y1="210" x2="469" y2="220" stroke="#9fe1cb" stroke-width="1.5" marker-end="url(#arrD)"/>
  <rect x="400" y="222" width="138" height="22" rx="6" fill="#e0f7f4" stroke="#1de9b6" stroke-width="0.8"/>
  <text x="469" y="237" text-anchor="middle" font-family="'Segoe UI',Arial,sans-serif" font-size="8.5" fill="#006064">+ Unlimited Clients</text>

  <!-- Snapshot -->
  <text x="370" y="262" font-family="'Segoe UI',Arial,sans-serif" font-size="9.5" font-weight="700" fill="#0a2d6e">Snapshot Deployed</text>
  <rect x="366" y="268" width="206" height="22" rx="6" fill="#fff8e1" stroke="#fbc02d" stroke-width="0.8"/>
  <text x="469" y="283" text-anchor="middle" font-family="'Segoe UI',Arial,sans-serif" font-size="9" fill="#e65100">📦 Agency Template → All Clients</text>

  <!-- Workflow active -->
  <rect x="366" y="298" width="96" height="22" rx="7" fill="#e0f7f4" stroke="#1de9b6" stroke-width="0.8"/>
  <circle cx="381" cy="309" r="4" fill="#00897b"/>
  <text x="395" y="313" font-family="'Segoe UI',Arial,sans-serif" font-size="9" font-weight="600" fill="#006064">Auto Workflows</text>

  <rect x="474" y="298" width="98" height="22" rx="7" fill="#e3f2fd" stroke="#1565c0" stroke-width="0.8"/>
  <circle cx="489" cy="309" r="4" fill="#1565c0"/>
  <text x="503" y="313" font-family="'Segoe UI',Arial,sans-serif" font-size="9" font-weight="600" fill="#0a2d6e">White-Label</text>

  <!-- CTA in card -->
  <rect x="366" y="330" width="206" height="34" rx="10" fill="url(#tealG)"/>
  <text x="469" y="348" text-anchor="middle" font-family="'Segoe UI',Arial,sans-serif" font-size="11" font-weight="700" fill="#ffffff">Set Up Your Agency</text>
  <text x="469" y="360" text-anchor="middle" font-family="'Segoe UI',Arial,sans-serif" font-size="8.5" fill="#cdfaf0">grow-highlevel.com/services</text>

  <!-- AI tag -->
  <rect x="379" y="60" width="130" height="20" rx="10" fill="#e1f5ee" stroke="#1de9b6" stroke-width="0.8"/>
  <circle cx="393" cy="70" r="5" fill="#00897b"/>
  <circle cx="393" cy="70" r="2.5" fill="#ffffff"/>
  <text x="451" y="74" text-anchor="middle" font-family="'Segoe UI',Arial,sans-serif" font-size="9.5" font-weight="700" fill="#006064">Built for US Agencies</text>
</svg>
