<svg width="600" height="400" viewBox="0 0 600 400" xmlns="http://www.w3.org/2000/svg">
  <defs>
    <linearGradient id="pageBg" x1="0" y1="0" x2="1" y2="1">
      <stop offset="0%" stop-color="#f0f9ff"/>
      <stop offset="50%" stop-color="#ffffff"/>
      <stop offset="100%" stop-color="#fff8f0"/>
    </linearGradient>
    <linearGradient id="skyBlue" x1="0" y1="0" x2="1" y2="1">
      <stop offset="0%" stop-color="#0277bd"/>
      <stop offset="100%" stop-color="#0288d1"/>
    </linearGradient>
    <linearGradient id="coralG" x1="0" y1="0" x2="1" y2="1">
      <stop offset="0%" stop-color="#d84315"/>
      <stop offset="100%" stop-color="#ff7043"/>
    </linearGradient>
    <linearGradient id="mintG" x1="0" y1="0" x2="1" y2="1">
      <stop offset="0%" stop-color="#00695c"/>
      <stop offset="100%" stop-color="#26c6a0"/>
    </linearGradient>
    <linearGradient id="accentBar" x1="0" y1="0" x2="1" y2="0">
      <stop offset="0%" stop-color="#0277bd"/>
      <stop offset="50%" stop-color="#0288d1"/>
      <stop offset="100%" stop-color="#ff7043"/>
    </linearGradient>
    <filter id="softSh">
      <feDropShadow dx="0" dy="5" stdDeviation="14" flood-color="#0277bd" flood-opacity="0.10"/>
    </filter>
    <filter id="cardSh">
      <feDropShadow dx="0" dy="2" stdDeviation="7" flood-color="#0277bd" flood-opacity="0.09"/>
    </filter>
    <filter id="glowSky">
      <feDropShadow dx="0" dy="0" stdDeviation="8" flood-color="#0288d1" flood-opacity="0.18"/>
    </filter>
  </defs>

  <rect width="600" height="400" fill="url(#pageBg)"/>

  <!-- Soft blob decorations — pricing/comparison theme -->
  <ellipse cx="515" cy="58" rx="138" ry="88" fill="#e1f5fe" opacity="0.55"/>
  <ellipse cx="515" cy="58" rx="82" ry="52" fill="#b3e5fc" opacity="0.42"/>
  <ellipse cx="88" cy="348" rx="108" ry="70" fill="#fff3e0" opacity="0.52"/>
  <ellipse cx="88" cy="348" rx="62" ry="42" fill="#ffe0b2" opacity="0.4"/>

  <!-- Free vs Paid abstract icons -->
  <text x="472" y="322" font-family="Arial,sans-serif" font-size="80" font-weight="900" fill="#e1f5fe" opacity="0.55">?</text>

  <!-- Floating shape accents -->
  <rect x="466" y="24" width="16" height="16" rx="4" fill="#0288d1" fill-opacity="0.14" transform="rotate(20,474,32)"/>
  <rect x="504" y="46" width="11" height="11" rx="3" fill="#ff7043" fill-opacity="0.16" transform="rotate(-14,510,52)"/>
  <circle cx="550" cy="28" r="6" fill="#0288d1" fill-opacity="0.20"/>
  <circle cx="540" cy="88" r="4" fill="#26c6a0" fill-opacity="0.28"/>
  <circle cx="486" cy="98" r="3" fill="#ff7043" fill-opacity="0.22"/>
  <rect x="14" y="238" width="13" height="13" rx="3" fill="#0277bd" fill-opacity="0.10" transform="rotate(18,20,244)"/>
  <circle cx="30" cy="298" r="5" fill="#ff7043" fill-opacity="0.20"/>
  <circle cx="12" cy="344" r="4" fill="#0288d1" fill-opacity="0.14"/>

  <!-- ===== LEFT CONTENT ===== -->
  <!-- Badge -->
  <rect x="42" y="26" width="212" height="27" rx="13.5" fill="url(#skyBlue)" filter="url(#glowSky)"/>
  <text x="148" y="43" text-anchor="middle" font-family="'Segoe UI',Arial,sans-serif" font-size="11" font-weight="700" fill="#ffffff" letter-spacing="0.8">🔍 PRICING GUIDE 2026</text>

  <!-- Main headline -->
  <text x="42" y="102" font-family="'Segoe UI',Arial,sans-serif" font-size="30" font-weight="900" fill="#1a2a3a">Is GoHighLevel</text>
  <text x="42" y="137" font-family="'Segoe UI',Arial,sans-serif" font-size="32" font-weight="800" fill="#0277bd">Free to Use?</text>

  <!-- Accent bar -->
  <rect x="42" y="148" width="285" height="5" rx="2.5" fill="url(#accentBar)"/>

  <!-- Subtitle -->
  <text x="42" y="174" font-family="'Segoe UI',Arial,sans-serif" font-size="12" fill="#4a6070">Free Trial, Plans &amp; What You</text>
  <text x="42" y="192" font-family="'Segoe UI',Arial,sans-serif" font-size="12" fill="#4a6070">Actually Get — Honest 2026 Answer</text>

  <!-- Answer chips -->
  <rect x="42" y="210" width="128" height="26" rx="13" fill="#e1f5fe" stroke="#0288d1" stroke-width="1"/>
  <text x="106" y="227" text-anchor="middle" font-family="'Segoe UI',Arial,sans-serif" font-size="10" font-weight="700" fill="#0277bd">✅ 14-Day Free Trial</text>
  <rect x="180" y="210" width="118" height="26" rx="13" fill="#fff3e0" stroke="#ff7043" stroke-width="1"/>
  <text x="239" y="227" text-anchor="middle" font-family="'Segoe UI',Arial,sans-serif" font-size="10" font-weight="700" fill="#d84315">❌ No Free Plan</text>

  <!-- Plan price cards -->
  <rect x="42" y="250" width="80" height="54" rx="12" fill="#ffffff" filter="url(#cardSh)"/>
  <rect x="42" y="250" width="80" height="4" rx="2" fill="url(#skyBlue)"/>
  <text x="82" y="274" text-anchor="middle" font-family="'Segoe UI',Arial,sans-serif" font-size="18" font-weight="900" fill="#0277bd">$97</text>
  <text x="82" y="290" text-anchor="middle" font-family="'Segoe UI',Arial,sans-serif" font-size="8.5" fill="#888aaa">Starter/mo</text>
  <text x="82" y="302" text-anchor="middle" font-family="'Segoe UI',Arial,sans-serif" font-size="8" fill="#aaaacc">1 business</text>

  <rect x="134" y="244" width="88" height="62" rx="12" fill="#ffffff" filter="url(#cardSh)" stroke="#0288d1" stroke-width="1.2"/>
  <rect x="134" y="244" width="88" height="4" rx="2" fill="url(#mintG)"/>
  <rect x="154" y="250" width="48" height="14" rx="7" fill="#0277bd" fill-opacity="0.12"/>
  <text x="178" y="261" text-anchor="middle" font-family="'Segoe UI',Arial,sans-serif" font-size="8" font-weight="700" fill="#0277bd">★ POPULAR</text>
  <text x="178" y="280" text-anchor="middle" font-family="'Segoe UI',Arial,sans-serif" font-size="18" font-weight="900" fill="#00695c">$297</text>
  <text x="178" y="295" text-anchor="middle" font-family="'Segoe UI',Arial,sans-serif" font-size="8.5" fill="#888aaa">Unlimited/mo</text>
  <text x="178" y="306" text-anchor="middle" font-family="'Segoe UI',Arial,sans-serif" font-size="8" fill="#aaaacc">Agencies</text>

  <rect x="234" y="250" width="86" height="54" rx="12" fill="#ffffff" filter="url(#cardSh)"/>
  <rect x="234" y="250" width="86" height="4" rx="2" fill="url(#coralG)"/>
  <text x="277" y="274" text-anchor="middle" font-family="'Segoe UI',Arial,sans-serif" font-size="18" font-weight="900" fill="#d84315">$497</text>
  <text x="277" y="290" text-anchor="middle" font-family="'Segoe UI',Arial,sans-serif" font-size="8.5" fill="#888aaa">SaaS Pro/mo</text>
  <text x="277" y="302" text-anchor="middle" font-family="'Segoe UI',Arial,sans-serif" font-size="8" fill="#aaaacc">White-Label</text>

  <!-- CTA buttons -->
  <rect x="42" y="322" width="148" height="30" rx="15" fill="url(#skyBlue)"/>
  <text x="116" y="341" text-anchor="middle" font-family="'Segoe UI',Arial,sans-serif" font-size="11.5" font-weight="700" fill="#ffffff">grow-highlevel.com</text>
  <rect x="200" y="322" width="120" height="30" rx="15" fill="#ffffff" stroke="#0288d1" stroke-width="1.2"/>
  <text x="260" y="341" text-anchor="middle" font-family="'Segoe UI',Arial,sans-serif" font-size="11" font-weight="700" fill="#0277bd">See All Plans →</text>

  <text x="42" y="392" font-family="'Segoe UI',Arial,sans-serif" font-size="8.5" fill="#aaaaaa">grow-highlevel.com · Is GoHighLevel Free to Use? 2026</text>

  <!-- ===== RIGHT: Free trial + plan breakdown card ===== -->
  <rect x="354" y="60" width="232" height="322" rx="20" fill="#ffffff" filter="url(#softSh)"/>
  <rect x="354" y="60" width="232" height="8" rx="6" fill="url(#accentBar)"/>

  <!-- Card header -->
  <rect x="370" y="78" width="200" height="36" rx="10" fill="#f0f9ff"/>
  <text x="470" y="93" text-anchor="middle" font-family="'Segoe UI',Arial,sans-serif" font-size="10" font-weight="700" fill="#0277bd">📋 Plan Comparison</text>
  <text x="470" y="107" text-anchor="middle" font-family="'Segoe UI',Arial,sans-serif" font-size="8.5" fill="#7a9aaa">What you get at each level</text>

  <!-- Plan rows -->
  <rect x="370" y="122" width="200" height="54" rx="8" fill="#f0f9ff" stroke="#b3e5fc" stroke-width="1"/>
  <rect x="370" y="122" width="5" height="54" rx="3" fill="#0288d1"/>
  <text x="384" y="136" font-family="'Segoe UI',Arial,sans-serif" font-size="10" font-weight="700" fill="#0277bd">Starter — $97/mo</text>
  <text x="384" y="150" font-family="'Segoe UI',Arial,sans-serif" font-size="8.5" fill="#4a6070">CRM + Funnels + Email + SMS</text>
  <text x="384" y="164" font-family="'Segoe UI',Arial,sans-serif" font-size="8.5" fill="#4a6070">Calendar + AI Chatbot</text>

  <rect x="370" y="182" width="200" height="54" rx="8" fill="#e8fdf8" stroke="#b2dfdb" stroke-width="1"/>
  <rect x="370" y="182" width="5" height="54" rx="3" fill="#26c6a0"/>
  <text x="384" y="196" font-family="'Segoe UI',Arial,sans-serif" font-size="10" font-weight="700" fill="#00695c">Unlimited — $297/mo</text>
  <text x="384" y="210" font-family="'Segoe UI',Arial,sans-serif" font-size="8.5" fill="#4a6070">Everything in Starter plus:</text>
  <text x="384" y="224" font-family="'Segoe UI',Arial,sans-serif" font-size="8.5" fill="#4a6070">Unlimited sub-accounts + API</text>

  <rect x="370" y="242" width="200" height="54" rx="8" fill="#fff3e0" stroke="#ffcc80" stroke-width="1"/>
  <rect x="370" y="242" width="5" height="54" rx="3" fill="#ff7043"/>
  <text x="384" y="256" font-family="'Segoe UI',Arial,sans-serif" font-size="10" font-weight="700" fill="#d84315">SaaS Pro — $497/mo</text>
  <text x="384" y="270" font-family="'Segoe UI',Arial,sans-serif" font-size="8.5" fill="#4a6070">White-label + SaaS resell</text>
  <text x="384" y="284" font-family="'Segoe UI',Arial,sans-serif" font-size="8.5" fill="#4a6070">Stripe auto-billing included</text>

  <!-- Free trial note -->
  <rect x="370" y="304" width="200" height="36" rx="8" fill="#e8f5e9" stroke="#a5d6a7" stroke-width="1"/>
  <text x="470" y="317" text-anchor="middle" font-family="'Segoe UI',Arial,sans-serif" font-size="10" font-weight="700" fill="#2e7d32">✅ 14-Day Free Trial</text>
  <text x="470" y="330" text-anchor="middle" font-family="'Segoe UI',Arial,sans-serif" font-size="8.5" fill="#5a8a5a">No credit card required</text>

  <!-- Bottom CTA -->
  <rect x="370" y="350" width="200" height="24" rx="12" fill="url(#skyBlue)"/>
  <text x="470" y="366" text-anchor="middle" font-family="'Segoe UI',Arial,sans-serif" font-size="10.5" font-weight="700" fill="#ffffff">Start Free Trial Today</text>

  <!-- USA badge -->
  <rect x="488" y="46" width="82" height="20" rx="10" fill="#e1f5fe" stroke="#0288d1" stroke-width="0.8"/>
  <text x="529" y="60" text-anchor="middle" font-family="'Segoe UI',Arial,sans-serif" font-size="9" font-weight="700" fill="#0277bd">🇺🇸 USA Guide</text>
</svg>
