<svg width="600" height="400" viewBox="0 0 600 400" xmlns="http://www.w3.org/2000/svg">
  <defs>
    <linearGradient id="pageBg" x1="0" y1="0" x2="1" y2="1">
      <stop offset="0%" stop-color="#f4f8ff"/>
      <stop offset="55%" stop-color="#ffffff"/>
      <stop offset="100%" stop-color="#f0fdf8"/>
    </linearGradient>
    <linearGradient id="ghlBlue" x1="0" y1="0" x2="1" y2="1">
      <stop offset="0%" stop-color="#0d47a1"/>
      <stop offset="100%" stop-color="#1976d2"/>
    </linearGradient>
    <linearGradient id="ghlGreen" x1="0" y1="0" x2="1" y2="1">
      <stop offset="0%" stop-color="#00897b"/>
      <stop offset="100%" stop-color="#26c6a0"/>
    </linearGradient>
    <linearGradient id="hubOrange" x1="0" y1="0" x2="1" y2="1">
      <stop offset="0%" stop-color="#e65100"/>
      <stop offset="100%" stop-color="#ff7043"/>
    </linearGradient>
    <linearGradient id="hubLight" x1="0" y1="0" x2="1" y2="1">
      <stop offset="0%" stop-color="#fff3e0"/>
      <stop offset="100%" stop-color="#ffe0b2"/>
    </linearGradient>
    <linearGradient id="ghlLight" x1="0" y1="0" x2="1" y2="1">
      <stop offset="0%" stop-color="#e3f2fd"/>
      <stop offset="100%" stop-color="#e0f7f4"/>
    </linearGradient>
    <linearGradient id="vsGrad" x1="0" y1="0" x2="0" y2="1">
      <stop offset="0%" stop-color="#1976d2"/>
      <stop offset="100%" stop-color="#26c6a0"/>
    </linearGradient>
    <filter id="glow">
      <feGaussianBlur stdDeviation="4" result="blur"/>
      <feComposite in="SourceGraphic" in2="blur" operator="over"/>
    </filter>
    <filter id="softSh">
      <feDropShadow dx="0" dy="4" stdDeviation="14" flood-color="#0d47a1" flood-opacity="0.13"/>
    </filter>
    <filter id="hubSh">
      <feDropShadow dx="0" dy="4" stdDeviation="14" flood-color="#e65100" flood-opacity="0.13"/>
    </filter>
    <filter id="vsSh">
      <feDropShadow dx="0" dy="6" stdDeviation="10" flood-color="#1565c0" flood-opacity="0.2"/>
    </filter>
  </defs>

  <!-- Background -->
  <rect width="600" height="400" fill="url(#pageBg)" rx="14"/>

  <!-- Tech circuit background patterns -->
  <g stroke="#1565c0" stroke-width="0.6" fill="none" opacity="0.07">
    <path d="M0 50 H50 V20 H110 V50 H160"/>
    <path d="M0 100 H30 V70 H80"/>
    <path d="M440 0 V40 H490 V20 H550"/>
    <path d="M520 60 H560 V100 H600"/>
    <path d="M0 320 H40 V360 H90 V340"/>
    <path d="M600 280 H560 V320 H510 V350 H460"/>
    <path d="M160 400 V370 H200 V390"/>
    <path d="M400 400 V360 H440 V380"/>
  </g>
  <!-- Circuit dots -->
  <g fill="#1565c0" opacity="0.12">
    <circle cx="50" cy="50" r="3"/><circle cx="110" cy="50" r="3"/><circle cx="80" cy="70" r="2"/>
    <circle cx="490" cy="20" r="3"/><circle cx="550" cy="60" r="2"/>
    <circle cx="40" cy="320" r="3"/><circle cx="90" cy="340" r="2"/>
    <circle cx="510" cy="350" r="3"/><circle cx="460" cy="350" r="2"/>
  </g>

  <!-- Left glow orb (GHL side) -->
  <circle cx="150" cy="200" r="130" fill="#1565c0" fill-opacity="0.05"/>
  <circle cx="150" cy="200" r="80" fill="#1976d2" fill-opacity="0.06"/>

  <!-- Right glow orb (HubSpot side) -->
  <circle cx="450" cy="200" r="130" fill="#e65100" fill-opacity="0.05"/>
  <circle cx="450" cy="200" r="80" fill="#ff7043" fill-opacity="0.06"/>

  <!-- Floating data particles left -->
  <g opacity="0.25">
    <rect x="20" y="140" width="8" height="8" rx="2" fill="#1976d2" transform="rotate(12,24,144)"/>
    <rect x="36" y="250" width="6" height="6" rx="1" fill="#26c6a0" transform="rotate(-8,39,253)"/>
    <circle cx="14" cy="200" r="3" fill="#1565c0"/>
    <circle cx="44" cy="170" r="2" fill="#26c6a0"/>
  </g>
  <!-- Floating data particles right -->
  <g opacity="0.25">
    <rect x="565" y="140" width="8" height="8" rx="2" fill="#ff7043" transform="rotate(-12,569,144)"/>
    <rect x="548" y="260" width="6" height="6" rx="1" fill="#e65100" transform="rotate(8,551,263)"/>
    <circle cx="580" cy="200" r="3" fill="#e65100"/>
    <circle cx="555" cy="165" r="2" fill="#ff7043"/>
  </g>

  <!-- LEFT PANEL — GoHighLevel -->
  <rect x="18" y="72" width="240" height="270" rx="16" fill="url(#ghlLight)" filter="url(#softSh)"/>
  <rect x="18" y="72" width="240" height="52" rx="16" fill="url(#ghlBlue)"/>
  <rect x="18" y="106" width="240" height="18" fill="url(#ghlBlue)"/>

  <!-- GHL Logo area -->
  <rect x="30" y="82" width="36" height="36" rx="8" fill="#ffffff" fill-opacity="0.2"/>
  <text x="48" y="105" text-anchor="middle" font-family="'Segoe UI',Arial,sans-serif" font-size="14" font-weight="800" fill="#ffffff">GHL</text>

  <text x="78" y="96" font-family="'Segoe UI',Arial,sans-serif" font-size="14" font-weight="800" fill="#ffffff">GoHighLevel</text>
  <text x="78" y="113" font-family="'Segoe UI',Arial,sans-serif" font-size="10" fill="#b3d4f8">All-in-One Agency Platform</text>

  <!-- GHL Feature list -->
  <text x="36" y="148" font-family="'Segoe UI',Arial,sans-serif" font-size="10" font-weight="700" fill="#0d47a1">✦ KEY FEATURES</text>

  <rect x="30" y="156" width="218" height="22" rx="6" fill="#ffffff" fill-opacity="0.7"/>
  <circle cx="44" cy="167" r="5" fill="#26c6a0"/>
  <text x="44" y="171" text-anchor="middle" font-family="'Segoe UI',Arial,sans-serif" font-size="8" font-weight="700" fill="#fff">✓</text>
  <text x="56" y="170" font-family="'Segoe UI',Arial,sans-serif" font-size="10" fill="#0d2240">CRM + Pipeline Management</text>

  <rect x="30" y="182" width="218" height="22" rx="6" fill="#ffffff" fill-opacity="0.5"/>
  <circle cx="44" cy="193" r="5" fill="#26c6a0"/>
  <text x="44" y="197" text-anchor="middle" font-family="'Segoe UI',Arial,sans-serif" font-size="8" font-weight="700" fill="#fff">✓</text>
  <text x="56" y="196" font-family="'Segoe UI',Arial,sans-serif" font-size="10" fill="#0d2240">Funnel &amp; Website Builder</text>

  <rect x="30" y="208" width="218" height="22" rx="6" fill="#ffffff" fill-opacity="0.7"/>
  <circle cx="44" cy="219" r="5" fill="#26c6a0"/>
  <text x="44" y="223" text-anchor="middle" font-family="'Segoe UI',Arial,sans-serif" font-size="8" font-weight="700" fill="#fff">✓</text>
  <text x="56" y="222" font-family="'Segoe UI',Arial,sans-serif" font-size="10" fill="#0d2240">Email + SMS Automation</text>

  <rect x="30" y="234" width="218" height="22" rx="6" fill="#ffffff" fill-opacity="0.5"/>
  <circle cx="44" cy="245" r="5" fill="#26c6a0"/>
  <text x="44" y="249" text-anchor="middle" font-family="'Segoe UI',Arial,sans-serif" font-size="8" font-weight="700" fill="#fff">✓</text>
  <text x="56" y="248" font-family="'Segoe UI',Arial,sans-serif" font-size="10" fill="#0d2240">White-Label SaaS Mode</text>

  <rect x="30" y="260" width="218" height="22" rx="6" fill="#ffffff" fill-opacity="0.7"/>
  <circle cx="44" cy="271" r="5" fill="#26c6a0"/>
  <text x="44" y="275" text-anchor="middle" font-family="'Segoe UI',Arial,sans-serif" font-size="8" font-weight="700" fill="#fff">✓</text>
  <text x="56" y="274" font-family="'Segoe UI',Arial,sans-serif" font-size="10" fill="#0d2240">AI Chatbots Built-In</text>

  <!-- GHL Price badge -->
  <rect x="30" y="290" width="218" height="38" rx="10" fill="url(#ghlBlue)"/>
  <text x="139" y="306" text-anchor="middle" font-family="'Segoe UI',Arial,sans-serif" font-size="10" fill="#b3d4f8">Starting From</text>
  <text x="139" y="322" text-anchor="middle" font-family="'Segoe UI',Arial,sans-serif" font-size="18" font-weight="800" fill="#ffffff">$97 / month</text>

  <!-- VS BADGE — CENTER -->
  <circle cx="300" cy="200" r="40" fill="#ffffff" filter="url(#vsSh)"/>
  <circle cx="300" cy="200" r="36" fill="url(#vsGrad)"/>
  <text x="300" y="207" text-anchor="middle" font-family="'Segoe UI',Arial,sans-serif" font-size="22" font-weight="900" fill="#ffffff">VS</text>

  <!-- Diagonal divider lines -->
  <line x1="262" y1="160" x2="286" y2="175" stroke="#1976d2" stroke-width="1" opacity="0.3"/>
  <line x1="262" y1="240" x2="286" y2="225" stroke="#1976d2" stroke-width="1" opacity="0.3"/>
  <line x1="338" y1="175" x2="314" y2="160" stroke="#e65100" stroke-width="1" opacity="0.3"/>
  <line x1="338" y1="225" x2="314" y2="240" stroke="#e65100" stroke-width="1" opacity="0.3"/>

  <!-- RIGHT PANEL — HubSpot -->
  <rect x="342" y="72" width="240" height="270" rx="16" fill="url(#hubLight)" filter="url(#hubSh)"/>
  <rect x="342" y="72" width="240" height="52" rx="16" fill="url(#hubOrange)"/>
  <rect x="342" y="106" width="240" height="18" fill="url(#hubOrange)"/>

  <!-- HubSpot Logo area -->
  <rect x="354" y="82" width="36" height="36" rx="8" fill="#ffffff" fill-opacity="0.2"/>
  <text x="372" y="105" text-anchor="middle" font-family="'Segoe UI',Arial,sans-serif" font-size="14" font-weight="800" fill="#ffffff">HS</text>

  <text x="402" y="96" font-family="'Segoe UI',Arial,sans-serif" font-size="14" font-weight="800" fill="#ffffff">HubSpot</text>
  <text x="402" y="113" font-family="'Segoe UI',Arial,sans-serif" font-size="10" fill="#ffd9c4">Enterprise CRM Platform</text>

  <!-- HubSpot features -->
  <text x="360" y="148" font-family="'Segoe UI',Arial,sans-serif" font-size="10" font-weight="700" fill="#bf360c">✦ KEY FEATURES</text>

  <rect x="354" y="156" width="218" height="22" rx="6" fill="#ffffff" fill-opacity="0.7"/>
  <circle cx="368" cy="167" r="5" fill="#ff7043"/>
  <text x="368" y="171" text-anchor="middle" font-family="'Segoe UI',Arial,sans-serif" font-size="8" font-weight="700" fill="#fff">✓</text>
  <text x="380" y="170" font-family="'Segoe UI',Arial,sans-serif" font-size="10" fill="#3d1a00">CRM (limited free tier)</text>

  <rect x="354" y="182" width="218" height="22" rx="6" fill="#ffffff" fill-opacity="0.5"/>
  <circle cx="368" cy="193" r="5" fill="#ff7043"/>
  <text x="368" y="197" text-anchor="middle" font-family="'Segoe UI',Arial,sans-serif" font-size="8" font-weight="700" fill="#fff">✓</text>
  <text x="380" y="196" font-family="'Segoe UI',Arial,sans-serif" font-size="10" fill="#3d1a00">Email Marketing</text>

  <rect x="354" y="208" width="218" height="22" rx="6" fill="#ffffff" fill-opacity="0.7"/>
  <circle cx="368" cy="219" r="5" fill="#ff7043"/>
  <text x="368" y="223" text-anchor="middle" font-family="'Segoe UI',Arial,sans-serif" font-size="8" font-weight="700" fill="#fff">✓</text>
  <text x="380" y="222" font-family="'Segoe UI',Arial,sans-serif" font-size="10" fill="#3d1a00">Marketing Automation</text>

  <rect x="354" y="234" width="218" height="22" rx="6" fill="#fff3e0" stroke="#ffccbc" stroke-width="1"/>
  <circle cx="368" cy="245" r="5" fill="#ffccbc"/>
  <text x="368" y="249" text-anchor="middle" font-family="'Segoe UI',Arial,sans-serif" font-size="8" font-weight="700" fill="#e65100">✗</text>
  <text x="380" y="248" font-family="'Segoe UI',Arial,sans-serif" font-size="10" fill="#8d3a00">No White-Label Option</text>

  <rect x="354" y="260" width="218" height="22" rx="6" fill="#fff3e0" stroke="#ffccbc" stroke-width="1"/>
  <circle cx="368" cy="271" r="5" fill="#ffccbc"/>
  <text x="368" y="275" text-anchor="middle" font-family="'Segoe UI',Arial,sans-serif" font-size="8" font-weight="700" fill="#e65100">✗</text>
  <text x="380" y="274" font-family="'Segoe UI',Arial,sans-serif" font-size="10" fill="#8d3a00">No Built-in SMS</text>

  <!-- HubSpot Price badge -->
  <rect x="354" y="290" width="218" height="38" rx="10" fill="url(#hubOrange)"/>
  <text x="463" y="306" text-anchor="middle" font-family="'Segoe UI',Arial,sans-serif" font-size="10" fill="#ffd9c4">Starting From</text>
  <text x="463" y="322" text-anchor="middle" font-family="'Segoe UI',Arial,sans-serif" font-size="18" font-weight="800" fill="#ffffff">$800 / month</text>

  <!-- TOP HEADLINE -->
  <rect x="100" y="18" width="400" height="46" rx="12" fill="#ffffff" filter="url(#softSh)"/>
  <text x="300" y="37" text-anchor="middle" font-family="'Segoe UI',Arial,sans-serif" font-size="11" font-weight="700" fill="#5a7a9a" letter-spacing="1.5">ULTIMATE COMPARISON 2026</text>
  <text x="300" y="56" text-anchor="middle" font-family="'Segoe UI',Arial,sans-serif" font-size="16" font-weight="800" fill="#0d2240">GoHighLevel vs HubSpot</text>

  <!-- WINNER BANNER -->
  <rect x="80" y="354" width="440" height="34" rx="10" fill="#ffffff" filter="url(#softSh)"/>
  <rect x="80" y="354" width="220" height="34" rx="10" fill="url(#ghlBlue)"/>
  <text x="190" y="376" text-anchor="middle" font-family="'Segoe UI',Arial,sans-serif" font-size="11" font-weight="700" fill="#ffffff">🏆 Winner for Agencies</text>
  <text x="410" y="371" text-anchor="middle" font-family="'Segoe UI',Arial,sans-serif" font-size="10" font-weight="600" fill="#5a7a9a">grow-highlevel.com</text>
  <text x="410" y="383" text-anchor="middle" font-family="'Segoe UI',Arial,sans-serif" font-size="9" fill="#8ba0b8">By Umair Yousaf · GHL Expert</text>
</svg>
