<svg width="600" height="400" viewBox="0 0 600 400" xmlns="http://www.w3.org/2000/svg">
  <defs>
    <linearGradient id="pageBg" x1="0" y1="0" x2="1" y2="1">
      <stop offset="0%" stop-color="#f4fffe"/>
      <stop offset="50%" stop-color="#ffffff"/>
      <stop offset="100%" stop-color="#f0f4f8"/>
    </linearGradient>
    <linearGradient id="tealG" x1="0" y1="0" x2="1" y2="1">
      <stop offset="0%" stop-color="#00695c"/>
      <stop offset="100%" stop-color="#00bfa5"/>
    </linearGradient>
    <linearGradient id="slateG" x1="0" y1="0" x2="1" y2="1">
      <stop offset="0%" stop-color="#263238"/>
      <stop offset="100%" stop-color="#455a64"/>
    </linearGradient>
    <linearGradient id="skyG" x1="0" y1="0" x2="1" y2="1">
      <stop offset="0%" stop-color="#0277bd"/>
      <stop offset="100%" stop-color="#29b6f6"/>
    </linearGradient>
    <linearGradient id="accentBar" x1="0" y1="0" x2="1" y2="0">
      <stop offset="0%" stop-color="#00695c"/>
      <stop offset="50%" stop-color="#00bfa5"/>
      <stop offset="100%" stop-color="#0277bd"/>
    </linearGradient>
    <filter id="softSh">
      <feDropShadow dx="0" dy="5" stdDeviation="14" flood-color="#00695c" flood-opacity="0.10"/>
    </filter>
    <filter id="cardSh">
      <feDropShadow dx="0" dy="2" stdDeviation="7" flood-color="#263238" flood-opacity="0.08"/>
    </filter>
    <filter id="glowT">
      <feDropShadow dx="0" dy="0" stdDeviation="8" flood-color="#00bfa5" flood-opacity="0.18"/>
    </filter>
  </defs>

  <rect width="600" height="400" fill="url(#pageBg)"/>

  <!-- Subtle grid pattern — dashboard/CRM feel -->
  <g stroke="#00bfa5" stroke-width="0.4" opacity="0.07">
    <line x1="0" y1="80" x2="600" y2="80"/>
    <line x1="0" y1="160" x2="600" y2="160"/>
    <line x1="0" y1="240" x2="600" y2="240"/>
    <line x1="0" y1="320" x2="600" y2="320"/>
    <line x1="100" y1="0" x2="100" y2="400"/>
    <line x1="200" y1="0" x2="200" y2="400"/>
    <line x1="400" y1="0" x2="400" y2="400"/>
    <line x1="500" y1="0" x2="500" y2="400"/>
  </g>

  <!-- Teal blob top right -->
  <ellipse cx="515" cy="58" rx="132" ry="84" fill="#e0f2f1" opacity="0.6"/>
  <ellipse cx="515" cy="58" rx="78" ry="50" fill="#b2dfdb" opacity="0.42"/>
  <!-- Slate blob bottom left -->
  <ellipse cx="82" cy="348" rx="106" ry="68" fill="#eceff1" opacity="0.55"/>
  <ellipse cx="82" cy="348" rx="60" ry="40" fill="#cfd8dc" opacity="0.4"/>

  <!-- Data/chart watermark -->
  <text x="460" y="300" font-family="Arial,sans-serif" font-size="70" fill="#e0f2f1" opacity="0.45">📊</text>

  <!-- Floating accent shapes -->
  <rect x="466" y="24" width="14" height="14" rx="3" fill="#00bfa5" fill-opacity="0.14" transform="rotate(20,473,31)"/>
  <rect x="502" y="46" width="10" height="10" rx="2.5" fill="#0277bd" fill-opacity="0.16" transform="rotate(-14,507,51)"/>
  <circle cx="548" cy="27" r="5.5" fill="#00bfa5" fill-opacity="0.22"/>
  <circle cx="537" cy="86" r="3.5" fill="#0277bd" fill-opacity="0.20"/>
  <circle cx="483" cy="95" r="3" fill="#00695c" fill-opacity="0.18"/>
  <rect x="14" y="238" width="12" height="12" rx="3" fill="#263238" fill-opacity="0.09" transform="rotate(18,20,244)"/>
  <circle cx="29" cy="295" r="4.5" fill="#00bfa5" fill-opacity="0.18"/>

  <!-- ===== LEFT CONTENT ===== -->
  <!-- Badge -->
  <rect x="42" y="26" width="204" height="27" rx="13.5" fill="url(#tealG)" filter="url(#glowT)"/>
  <text x="144" y="43" text-anchor="middle" font-family="'Segoe UI',Arial,sans-serif" font-size="11" font-weight="700" fill="#ffffff" letter-spacing="0.8">🗂️ CRM GUIDE 2026</text>

  <!-- Main headline -->
  <text x="42" y="104" font-family="'Segoe UI',Arial,sans-serif" font-size="36" font-weight="900" fill="#1a2a2a">HighLevel</text>
  <text x="42" y="144" font-family="'Segoe UI',Arial,sans-serif" font-size="34" font-weight="800" fill="#00695c">CRM</text>

  <!-- Accent bar -->
  <rect x="42" y="154" width="295" height="5" rx="2.5" fill="url(#accentBar)"/>

  <!-- Subtitle -->
  <text x="42" y="180" font-family="'Segoe UI',Arial,sans-serif" font-size="12.5" fill="#3a5050">The Complete Guide for US Small</text>
  <text x="42" y="198" font-family="'Segoe UI',Arial,sans-serif" font-size="12.5" fill="#3a5050">Businesses &amp; Marketing Agencies</text>

  <!-- Feature pills -->
  <rect x="42" y="216" width="78" height="24" rx="12" fill="#e0f2f1" stroke="#00897b" stroke-width="0.8"/>
  <text x="81" y="232" text-anchor="middle" font-family="'Segoe UI',Arial,sans-serif" font-size="9.5" font-weight="600" fill="#00695c">Pipelines</text>
  <rect x="130" y="216" width="74" height="24" rx="12" fill="#e3f2fd" stroke="#0277bd" stroke-width="0.8"/>
  <text x="167" y="232" text-anchor="middle" font-family="'Segoe UI',Arial,sans-serif" font-size="9.5" font-weight="600" fill="#0277bd">Automation</text>
  <rect x="214" y="216" width="80" height="24" rx="12" fill="#e0f2f1" stroke="#00897b" stroke-width="0.8"/>
  <text x="254" y="232" text-anchor="middle" font-family="'Segoe UI',Arial,sans-serif" font-size="9.5" font-weight="600" fill="#00695c">All-in-One</text>

  <!-- Stat cards -->
  <rect x="42" y="256" width="84" height="52" rx="12" fill="#ffffff" filter="url(#cardSh)"/>
  <rect x="42" y="256" width="84" height="4" rx="2" fill="url(#tealG)"/>
  <text x="84" y="280" text-anchor="middle" font-family="'Segoe UI',Arial,sans-serif" font-size="18" font-weight="900" fill="#00695c">60K+</text>
  <text x="84" y="298" text-anchor="middle" font-family="'Segoe UI',Arial,sans-serif" font-size="8.5" fill="#888aaa">Users USA</text>

  <rect x="138" y="256" width="84" height="52" rx="12" fill="#ffffff" filter="url(#cardSh)"/>
  <rect x="138" y="256" width="84" height="4" rx="2" fill="url(#skyG)"/>
  <text x="180" y="280" text-anchor="middle" font-family="'Segoe UI',Arial,sans-serif" font-size="18" font-weight="900" fill="#0277bd">$97</text>
  <text x="180" y="298" text-anchor="middle" font-family="'Segoe UI',Arial,sans-serif" font-size="8.5" fill="#888aaa">Start/month</text>

  <rect x="234" y="256" width="84" height="52" rx="12" fill="#ffffff" filter="url(#cardSh)"/>
  <rect x="234" y="256" width="84" height="4" rx="2" fill="url(#slateG)"/>
  <text x="276" y="280" text-anchor="middle" font-family="'Segoe UI',Arial,sans-serif" font-size="18" font-weight="900" fill="#263238">8-in-1</text>
  <text x="276" y="298" text-anchor="middle" font-family="'Segoe UI',Arial,sans-serif" font-size="8.5" fill="#888aaa">Tools in One</text>

  <!-- CTAs -->
  <rect x="42" y="324" width="148" height="30" rx="15" fill="url(#tealG)"/>
  <text x="116" y="343" text-anchor="middle" font-family="'Segoe UI',Arial,sans-serif" font-size="11.5" font-weight="700" fill="#ffffff">grow-highlevel.com</text>
  <rect x="200" y="324" width="120" height="30" rx="15" fill="#ffffff" stroke="#00897b" stroke-width="1.2"/>
  <text x="260" y="343" text-anchor="middle" font-family="'Segoe UI',Arial,sans-serif" font-size="11" font-weight="700" fill="#00695c">Start Free Trial →</text>

  <text x="42" y="390" font-family="'Segoe UI',Arial,sans-serif" font-size="8.5" fill="#aaaaaa">grow-highlevel.com · HighLevel CRM Complete Guide 2026</text>

  <!-- ===== RIGHT: Live CRM dashboard mockup ===== -->
  <rect x="354" y="60" width="230" height="324" rx="16" fill="#ffffff" filter="url(#softSh)"/>
  <!-- Browser top bar -->
  <rect x="354" y="60" width="230" height="36" rx="16" fill="url(#slateG)"/>
  <rect x="354" y="78" width="230" height="18" fill="url(#slateG)"/>
  <circle cx="370" cy="78" r="5" fill="#ef5350"/>
  <circle cx="384" cy="78" r="5" fill="#ffb300"/>
  <circle cx="398" cy="78" r="5" fill="#66bb6a"/>
  <text x="469" y="83" text-anchor="middle" font-family="'Segoe UI',Arial,sans-serif" font-size="8.5" fill="#90a4ae">HighLevel CRM Dashboard</text>

  <!-- Pipeline view header -->
  <text x="368" y="114" font-family="'Segoe UI',Arial,sans-serif" font-size="9.5" font-weight="700" fill="#263238">Sales Pipeline</text>
  <rect x="368" y="120" width="202" height="8" rx="4" fill="#eceff1"/>
  <rect x="368" y="120" width="138" height="8" rx="4" fill="url(#tealG)"/>
  <text x="558" y="128" text-anchor="end" font-family="'Segoe UI',Arial,sans-serif" font-size="8" fill="#00695c" font-weight="600">68%</text>

  <!-- Contact rows -->
  <text x="368" y="148" font-family="'Segoe UI',Arial,sans-serif" font-size="9.5" font-weight="700" fill="#263238">Active Contacts</text>

  <rect x="368" y="154" width="202" height="30" rx="7" fill="#f4fffe" stroke="#b2dfdb" stroke-width="0.8"/>
  <circle cx="384" cy="169" r="9" fill="#00695c"/>
  <text x="384" y="173" text-anchor="middle" font-family="'Segoe UI',Arial,sans-serif" font-size="7.5" font-weight="700" fill="#fff">JW</text>
  <text x="400" y="165" font-family="'Segoe UI',Arial,sans-serif" font-size="9.5" font-weight="600" fill="#1a2a2a">James Wilson</text>
  <text x="400" y="177" font-family="'Segoe UI',Arial,sans-serif" font-size="8" fill="#8ba0aa">New Lead · Google Ads</text>
  <rect x="518" y="160" width="44" height="16" rx="5" fill="#e0f2f1"/>
  <text x="540" y="171" text-anchor="middle" font-family="'Segoe UI',Arial,sans-serif" font-size="8" font-weight="600" fill="#00695c">$3,400</text>

  <rect x="368" y="190" width="202" height="30" rx="7" fill="#f0f4f8" stroke="#cfd8dc" stroke-width="0.8"/>
  <circle cx="384" cy="205" r="9" fill="#0277bd"/>
  <text x="384" y="209" text-anchor="middle" font-family="'Segoe UI',Arial,sans-serif" font-size="7.5" font-weight="700" fill="#fff">LP</text>
  <text x="400" y="201" font-family="'Segoe UI',Arial,sans-serif" font-size="9.5" font-weight="600" fill="#1a2a2a">Laura Parker</text>
  <text x="400" y="213" font-family="'Segoe UI',Arial,sans-serif" font-size="8" fill="#8ba0aa">Demo Booked</text>
  <rect x="518" y="196" width="44" height="16" rx="5" fill="#e3f2fd"/>
  <text x="540" y="207" text-anchor="middle" font-family="'Segoe UI',Arial,sans-serif" font-size="8" font-weight="600" fill="#0277bd">$6,200</text>

  <rect x="368" y="226" width="202" height="30" rx="7" fill="#f4fffe" stroke="#b2dfdb" stroke-width="0.8"/>
  <circle cx="384" cy="241" r="9" fill="#00695c"/>
  <text x="384" y="245" text-anchor="middle" font-family="'Segoe UI',Arial,sans-serif" font-size="7.5" font-weight="700" fill="#fff">RT</text>
  <text x="400" y="237" font-family="'Segoe UI',Arial,sans-serif" font-size="9.5" font-weight="600" fill="#1a2a2a">Ryan Torres</text>
  <text x="400" y="249" font-family="'Segoe UI',Arial,sans-serif" font-size="8" fill="#8ba0aa">Closed Won ✓</text>
  <rect x="518" y="232" width="44" height="16" rx="5" fill="#e0f2f1"/>
  <text x="540" y="243" text-anchor="middle" font-family="'Segoe UI',Arial,sans-serif" font-size="8" font-weight="600" fill="#00695c">$9,800</text>

  <!-- Workflow status -->
  <text x="368" y="272" font-family="'Segoe UI',Arial,sans-serif" font-size="9.5" font-weight="700" fill="#263238">Active Workflows</text>
  <rect x="368" y="278" width="92" height="22" rx="7" fill="#e0f2f1" stroke="#00bfa5" stroke-width="0.8"/>
  <circle cx="381" cy="289" r="3.5" fill="#00897b"/>
  <text x="394" y="293" font-family="'Segoe UI',Arial,sans-serif" font-size="8.5" font-weight="600" fill="#00695c">Follow-Up</text>
  <rect x="470" y="278" width="100" height="22" rx="7" fill="#e3f2fd" stroke="#0277bd" stroke-width="0.8"/>
  <circle cx="483" cy="289" r="3.5" fill="#0277bd"/>
  <text x="496" y="293" font-family="'Segoe UI',Arial,sans-serif" font-size="8.5" font-weight="600" fill="#0277bd">Appointment</text>

  <!-- Revenue widget -->
  <rect x="368" y="310" width="202" height="46" rx="10" fill="#263238"/>
  <text x="374" y="326" font-family="'Segoe UI',Arial,sans-serif" font-size="9" fill="#90a4ae">Pipeline Revenue</text>
  <text x="374" y="346" font-family="'Segoe UI',Arial,sans-serif" font-size="17" font-weight="900" fill="#00bfa5">$48,200</text>
  <text x="554" y="340" text-anchor="end" font-family="'Segoe UI',Arial,sans-serif" font-size="8.5" fill="#66bb6a">↑ 32%</text>

  <!-- CTA in card -->
  <rect x="368" y="366" width="202" height="10" rx="5" fill="#e0f2f1"/>
  <rect x="368" y="366" width="138" height="10" rx="5" fill="url(#tealG)"/>
  <text x="469" y="382" text-anchor="middle" font-family="'Segoe UI',Arial,sans-serif" font-size="8.5" fill="#5a7a7a">14-day free trial · No credit card</text>

  <!-- AI tag -->
  <rect x="378" y="46" width="126" height="20" rx="10" fill="#e0f2f1" stroke="#00bfa5" stroke-width="0.8"/>
  <circle cx="392" cy="56" r="4.5" fill="#00897b"/>
  <circle cx="392" cy="56" r="2.2" fill="#ffffff"/>
  <text x="447" y="60" text-anchor="middle" font-family="'Segoe UI',Arial,sans-serif" font-size="9.5" font-weight="700" fill="#00695c">CRM + 8 Tools</text>
</svg>
